# xmcd CD database file
#
# Track frame offsets:
#	150
#	42607
#	83929
#	130743
#	173170
#
# Disc length: 2948 seconds
#
# Revision: 0
# Processed by: cddbd v1.5.1PL0 Copyright (c) Steve Scherf et al.
# Submitted via: CDex 1.51
#
DISCID=3d0b8205
DTITLE=Musique Santé - Santé Par Le Yoga
DYEAR=1900
DGENRE=New Age
TTITLE0=Répit
TTITLE1=Libération
TTITLE2=Concentration
TTITLE3=Plexus
TTITLE4=Triangle
EXTD=
EXTT0=
EXTT1=
EXTT2=
EXTT3=
EXTT4=
PLAYORDER=
